<?xml version="1.0" standalone="no"?>
<!DOCTYPE svg PUBLIC "-//W3C//DTD SVG 20010904//EN"
 "http://www.w3.org/TR/2001/REC-SVG-20010904/DTD/svg10.dtd">
<svg version="1.0" xmlns="http://www.w3.org/2000/svg"
 width="300.000000pt" height="300.000000pt" viewBox="0 0 300.000000 300.000000"
 preserveAspectRatio="xMidYMid meet">
<metadata>
Created by potrace 1.14, written by Peter Selinger 2001-2017
</metadata>
<g transform="translate(0.000000,300.000000) scale(0.100000,-0.100000)"
fill="#000000" stroke="none">
<path d="M1325 2994 c-459 -67 -836 -301 -1077 -668 -169 -256 -248 -521 -248
-826 0 -517 252 -978 693 -1264 149 -98 329 -170 527 -213 121 -26 439 -26
560 0 198 43 378 115 527 213 350 227 581 566 670 984 26 121 26 439 0 560
-88 411 -308 741 -652 973 -147 99 -336 178 -535 222 -73 16 -395 29 -465 19z
m530 -568 c180 -47 235 -91 235 -188 0 -57 -17 -96 -59 -131 -43 -35 -88 -41
-189 -21 -175 34 -362 17 -520 -46 -203 -82 -333 -223 -382 -415 -58 -228 27
-464 218 -605 115 -85 272 -127 410 -110 81 11 192 50 238 85 99 76 108 204
20 291 -67 68 -148 79 -238 33 -54 -28 -130 -25 -184 6 -59 35 -88 85 -89 155
0 103 49 160 185 211 70 27 237 37 317 19 167 -37 313 -152 387 -305 44 -92
57 -151 57 -255 -1 -259 -154 -460 -426 -559 -249 -90 -500 -80 -740 28 -136
62 -297 198 -384 325 -53 77 -119 225 -142 322 -31 126 -31 313 0 439 28 110
102 268 169 356 145 190 369 326 627 380 133 27 353 21 490 -15z"/>
<path d="M2717 2849 c-22 -13 -47 -61 -47 -93 0 -33 43 -82 77 -89 41 -8 89
17 108 54 34 65 -15 140 -92 139 -15 0 -36 -5 -46 -11z m106 -36 c41 -38 3
-123 -55 -123 -66 0 -94 88 -41 130 30 23 65 21 96 -7z"/>
<path d="M2727 2813 c-4 -3 -7 -28 -7 -55 0 -36 4 -48 15 -48 8 0 15 9 15 20
0 11 4 20 9 20 5 0 13 -9 16 -20 3 -11 13 -20 21 -20 16 0 18 9 5 29 -6 9 -5
21 2 33 10 16 9 22 -7 34 -21 15 -58 19 -69 7z m53 -33 c0 -5 -7 -10 -15 -10
-8 0 -15 5 -15 10 0 6 7 10 15 10 8 0 15 -4 15 -10z"/>
</g>
</svg>
